<svg xmlns="http://www.w3.org/2000/svg" xmlns:svg="http://www.w3.org/2000/svg" id="svg11300" width="128" height="24" version="1.0" style="display:inline;enable-background:new"><metadata id="metadata4"/><g style="display:inline" id="layer1" transform="translate(0,-276)"><path style="opacity:.02;fill:#000;fill-opacity:1;stroke:none" id="path3053" d="M 17 0 L 17 24 L 47 24 L 47 0 L 17 0 z M 81 0 L 81 24 L 111 24 L 111 0 L 81 0 z" transform="translate(0,276)"/><path style="opacity:.01;fill:#fff;fill-opacity:1;stroke:none" id="path3049" d="M 16 0 L 16 24 L 17 24 L 17 0 L 16 0 z M 47 0 L 47 24 L 48 24 L 48 0 L 47 0 z M 80 0 L 80 24 L 81 24 L 81 0 L 80 0 z M 111 0 L 111 24 L 112 24 L 112 0 L 111 0 z" transform="translate(0,276)"/></g></svg>