<svg xmlns="http://www.w3.org/2000/svg" xmlns:svg="http://www.w3.org/2000/svg" xmlns:xlink="http://www.w3.org/1999/xlink" id="svg11300" width="24" height="24" version="1.0" style="display:inline;enable-background:new"><defs id="defs3"><linearGradient id="linearGradient3814"><stop style="stop-color:#000;stop-opacity:1" id="stop3816" offset="0"/><stop style="stop-color:#000;stop-opacity:0" id="stop3818" offset="1"/></linearGradient><linearGradient id="linearGradient3806"><stop style="stop-color:#000;stop-opacity:1" id="stop3808" offset="0"/><stop style="stop-color:#000;stop-opacity:0" id="stop3810" offset="1"/></linearGradient><linearGradient id="linearGradient3812" x1="24" x2="24" y1="2" y2="22" gradientUnits="userSpaceOnUse" xlink:href="#linearGradient3806"/><linearGradient id="linearGradient3822" x1="24" x2="24" y1="2" y2="22" gradientUnits="userSpaceOnUse" xlink:href="#linearGradient3814"/></defs><metadata id="metadata4"/><g style="display:inline" id="layer1" transform="translate(0,-276)"><path style="opacity:.4;fill:#000;fill-opacity:1;stroke:none" id="rect3023" d="M 2,0 C 0.892,0 0,0.892 0,2 l 0,20 c 0,1.108 0.892,2 2,2 l 20,0 c 1.108,0 2,-0.892 2,-2 L 24,2 C 24,0.892 23.108,0 22,0 z m 1,1 18,0 c 1.108,0 2,0.892 2,2 l 0,18 c 0,1.108 -0.892,2 -2,2 L 3,23 C 1.892,23 1,22.108 1,21 L 1,3 C 1,1.892 1.892,1 3,1 z" transform="translate(0,276)"/><rect style="opacity:.7;fill:#fff;fill-opacity:1;stroke:none" id="rect3021" width="22" height="22" x="1" y="277" rx="2" ry="2"/><path style="opacity:.07999998;fill:url(#linearGradient3822);fill-opacity:1;stroke:none" id="rect3033" d="M 3,1 C 1.892,1 1,1.892 1,3 l 0,18 c 0,1.108 0.892,2 2,2 l 18,0 c 1.108,0 2,-0.892 2,-2 L 23,3 C 23,1.892 22.108,1 21,1 z m 2,2 14,0 c 1.108,0 2,0.892 2,2 l 0,14 c 0,1.108 -0.892,2 -2,2 L 5,21 C 3.892,21 3,20.108 3,19 L 3,5 C 3,3.892 3.892,3 5,3 z" transform="translate(0,276)"/><path style="opacity:.2;fill:url(#linearGradient3812);fill-opacity:1;stroke:none" id="rect3028" d="M 3,1 C 1.892,1 1,1.892 1,3 l 0,18 c 0,1.108 0.892,2 2,2 l 18,0 c 1.108,0 2,-0.892 2,-2 L 23,3 C 23,1.892 22.108,1 21,1 z m 1,1 16,0 c 1.108,0 2,0.892 2,2 l 0,16 c 0,1.108 -0.892,2 -2,2 L 4,22 C 2.892,22 2,21.108 2,20 L 2,4 C 2,2.892 2.892,2 4,2 z" transform="translate(0,276)"/></g></svg>