<svg xmlns="http://www.w3.org/2000/svg" xmlns:svg="http://www.w3.org/2000/svg" id="svg2" width="100%" height="100%" version="1.1" viewBox="0 0 16 16"><metadata id="metadata18"/><g id="g4" transform="translate(0 -1036.3622)" style="fill:#f2f2f2"><path style="fill:#f2f2f2" id="path6" d="m 1.7339331,1037.2359 12.5952689,0 c 0.581481,0 1.049605,0.4581 1.049605,1.0271 l 0,12.3247 c 0,0.569 -0.468124,1.027 -1.049605,1.027 l -12.5952689,0 c -0.5814816,0 -1.04960577,-0.458 -1.04960577,-1.027 l 0,-12.3247 c 0,-0.569 0.46812417,-1.0271 1.04960577,-1.0271 z"/></g><g style="fill:#aaa" id="g8" transform="translate(0 -1036.3622)"><path id="path10" d="M 2 0 C 0.892 0 3.2526065e-18 0.892 0 2 L 0 14 C 0 15.108 0.892 16 2 16 L 14 16 C 15.108 16 16 15.108 16 14 L 16 2 C 16 0.892 15.108 3.2526065e-18 14 0 L 2 0 z M 2 1 L 14 1 C 14.554 1 15 1.446 15 2 L 15 14 C 15 14.554 14.554 15 14 15 L 2 15 C 1.446 15 1 14.554 1 14 L 1 2 C 1 1.446 1.446 1 2 1 z" transform="translate(0 1036.3622)"/><rect id="rect12" width="8" height="2" x="4" y="1043.362"/></g></svg>