<svg xmlns="http://www.w3.org/2000/svg" xmlns:svg="http://www.w3.org/2000/svg" xmlns:xlink="http://www.w3.org/1999/xlink" id="svg2" width="18" height="13" version="1.1" viewBox="-288 0 0 16"><metadata id="metadata18"/><defs id="defs16"><linearGradient id="linearGradient3809"><stop id="stop7" offset="0" style="stop-color:#e5e5e5"/><stop id="stop9" offset="1" style="stop-color:#f9f9f9"/></linearGradient><linearGradient id="linearGradient3832" x1="1" x2="15" gradientTransform="translate(0,-16)" gradientUnits="userSpaceOnUse" xlink:href="#linearGradient3809"/><linearGradient id="linearGradient3853" x1="402.25" x2="396.617" y1="507.862" y2="502.854" gradientTransform="matrix(0.86666669,0,0,0.86666669,-337.66668,-432.78059)" gradientUnits="userSpaceOnUse" xlink:href="#linearGradient3053"/><linearGradient id="linearGradient3053"><stop style="stop-color:#75afff;stop-opacity:1" id="stop3055" offset="0"/><stop style="stop-color:#8cbaff;stop-opacity:1" id="stop3057" offset="1"/></linearGradient><linearGradient id="linearGradient3856" x1="404" x2="398.375" y1="514.237" y2="503.703" gradientTransform="matrix(0.86666669,0,0,0.86666669,-337.66668,-432.78059)" gradientUnits="userSpaceOnUse" xlink:href="#linearGradient3046"/><linearGradient id="linearGradient3046"><stop style="stop-color:#87b7ff;stop-opacity:1" id="stop3049" offset="0"/><stop style="stop-color:#98c1ff;stop-opacity:1" id="stop3051" offset="1"/></linearGradient></defs><rect id="rect3024" width="13" height="13" x="2.5" y="0" rx="2.654" ry="2.654" style="fill:url(#linearGradient3856);fill-opacity:1;stroke:none"/><rect style="fill:url(#linearGradient3853);fill-opacity:1;stroke:none" id="rect3026" width="11.267" height="11.267" x="3.367" y=".867" rx="2.3" ry="2.3"/><path id="rect3067" d="m 11.920515,3.5246878 c -0.217178,0.040647 -0.433455,0.181636 -0.56875,0.3791667 L 7.8580141,9.0226045 6.5309305,7.6955212 c -0.338598,-0.338598 -0.880152,-0.338598 -1.21875,0 -0.338598,0.3385984 -0.338598,0.8801522 0,1.2187494 l 1.9229169,1.9229174 0.1354167,0.135416 c 0.036487,0.03605 0.064393,0.07826 0.1083333,0.108334 0.033887,0.02323 0.072627,0.0364 0.1083333,0.05417 0.044287,0.02184 0.088799,0.04039 0.1354167,0.05417 0.026347,0.0078 0.0546,0.02167 0.081207,0.02704 0.017073,0.0035 0.03692,-0.0026 0.054167,0 0.073147,0.0094 0.143494,0.0094 0.2166666,0 0.073147,-0.0094 0.1473247,-0.02591 0.2166667,-0.05417 0.1088447,-0.04307 0.2122727,-0.102865 0.2979167,-0.189584 0.036053,-0.03649 0.07826,-0.06448 0.1083333,-0.108333 L 12.787139,4.8788136 C 13.057729,4.4837523 12.965533,3.9306629 12.570472,3.6600636 12.372941,3.5247658 12.137649,3.4840325 11.920471,3.5246445 Z" style="opacity:.2;fill:#000;fill-opacity:1;stroke:none"/><path id="rect3828" d="m 11.920515,2.6581685 c -0.217178,0.040647 -0.433455,0.181636 -0.56875,0.3791666 L 7.8580141,8.1560854 6.5309305,6.8290018 c -0.338598,-0.338598 -0.880152,-0.338598 -1.21875,0 -0.338598,0.3385981 -0.338598,0.8801521 0,1.2187504 l 1.9229169,1.9229163 0.1354167,0.1354165 c 0.036487,0.03605 0.064393,0.07826 0.1083333,0.108333 0.033887,0.02323 0.072627,0.0364 0.1083333,0.05417 0.044287,0.02184 0.088799,0.04039 0.1354167,0.05417 0.026347,0.0078 0.0546,0.02167 0.081207,0.02704 0.017073,0.0035 0.03692,-0.0026 0.054167,0 0.073147,0.0094 0.143494,0.0094 0.2166666,0 0.073147,-0.0094 0.1473247,-0.02591 0.2166667,-0.05417 0.1088447,-0.04307 0.2122727,-0.102873 0.2979167,-0.189583 0.036053,-0.03649 0.07826,-0.06439 0.1083333,-0.1083333 L 12.787139,4.012295 C 13.057729,3.6172337 12.965533,3.0641443 12.570472,2.793545 12.372941,2.6582465 12.137649,2.6175131 11.920471,2.6581251 Z" style="fill:#e9f1fc;fill-opacity:1;stroke:none"/></svg>