<svg xmlns="http://www.w3.org/2000/svg" xmlns:svg="http://www.w3.org/2000/svg" id="svg2" width="15" height="14" version="1.1" viewBox="-256 0 0 16"><metadata id="metadata14"/><path id="path6" d="m 7.5000003,0.54355 c 3.6573317,0 6.6221837,2.89065 6.6221837,6.45645 0,3.5658 -2.964852,6.45645 -6.6221837,6.45645 -3.6573314,0 -6.62218435,-2.89065 -6.62218435,-6.45645 0,-3.5658 2.96485295,-6.45645 6.62218435,-6.45645 z" style="fill:#f2f2f2"/><path id="path8" d="m 7.5,0 c -3.8659932,0 -7,3.1340067 -7,7 0,3.865993 3.1340068,7 7,7 3.865993,0 7,-3.134007 7,-7 0,-3.8659933 -3.134007,-7 -7,-7 z m 0,0.875 c 3.382744,0 6.125,2.7422559 6.125,6.125 0,3.382744 -2.742256,6.125 -6.125,6.125 C 4.1172559,13.125 1.375,10.382744 1.375,7 1.375,3.6172559 4.1172559,0.875 7.5,0.875 Z" style="fill:#aaa"/></svg>