<svg xmlns="http://www.w3.org/2000/svg" xmlns:svg="http://www.w3.org/2000/svg" xmlns:xlink="http://www.w3.org/1999/xlink" id="svg2" width="15" height="14" version="1.1" viewBox="0 0 15 14"><metadata id="metadata20"/><defs id="defs4"><linearGradient id="linearGradient3799" x1="1" x2="15" gradientTransform="matrix(0,1,-1,0,16,0)" gradientUnits="userSpaceOnUse" xlink:href="#linearGradient3793"/><linearGradient id="linearGradient3793"><stop style="stop-color:#e5e5e5" id="stop8" offset="0"/><stop style="stop-color:#f9f9f9" id="stop10" offset="1"/></linearGradient><linearGradient id="linearGradient3832" x1="1" x2="15" gradientTransform="translate(0,-16)" gradientUnits="userSpaceOnUse" xlink:href="#linearGradient3793"/><linearGradient id="linearGradient3053"><stop id="stop3055" offset="0" style="stop-color:#75afff;stop-opacity:1"/><stop id="stop3057" offset="1" style="stop-color:#8cbaff;stop-opacity:1"/></linearGradient><linearGradient id="linearGradient3046"><stop id="stop3049" offset="0" style="stop-color:#87b7ff;stop-opacity:1"/><stop id="stop3051" offset="1" style="stop-color:#98c1ff;stop-opacity:1"/></linearGradient><linearGradient id="linearGradient4199" x1="10.126" x2="4.989" y1="12.382" y2="5.346" gradientTransform="matrix(0.875,0,0,0.875,0.49999999,0)" gradientUnits="userSpaceOnUse" xlink:href="#linearGradient3053"/><linearGradient id="linearGradient4201" x1="11.932" x2="2.983" y1="13.695" y2="2.441" gradientTransform="matrix(0.875,0,0,0.875,0.5,0)" gradientUnits="userSpaceOnUse" xlink:href="#linearGradient3046"/></defs><path style="fill:#fff" id="path12" d="M 7.5,13.125 C 4.1172561,13.125 1.375,10.382744 1.375,7 1.375,3.6172559 4.1172561,0.875 7.5,0.875 c 3.382744,0 6.125,2.7422559 6.125,6.125 0,3.382744 -2.742256,6.125 -6.125,6.125 z"/><path style="fill:url(#linearGradient4199);fill-opacity:1" id="path4150" d="M 7.5,0 C 3.6340068,0 0.50000001,3.1340068 0.50000001,7 c 0,3.865993 3.13400679,7 6.99999999,7 3.865993,0 7,-3.134007 7,-7 0,-3.8659932 -3.134007,-7 -7,-7 z"/><path style="opacity:1;fill:url(#linearGradient4201);fill-opacity:.99215686" id="path14" d="m 7.5,0 c -3.8659932,0 -7,3.1340067 -7,7 0,3.865993 3.1340068,7 7,7 3.865993,0 7,-3.134007 7,-7 0,-3.8659933 -3.134007,-7 -7,-7 z m 0,0.875 c 3.382744,0 6.125,2.7422559 6.125,6.125 0,3.382744 -2.742256,6.125 -6.125,6.125 C 4.1172559,13.125 1.375,10.382744 1.375,7 1.375,3.6172559 4.1172559,0.875 7.5,0.875 Z"/><path id="path4153" d="M 10.125,7.8749999 C 10.125,9.324748 8.9497481,10.5 7.5,10.5 6.0502527,10.5 4.875,9.324748 4.875,7.8749999 c 0,-1.4497474 1.1752527,-2.625 2.625,-2.625 1.4497481,0 2.625,1.1752526 2.625,2.625 z" style="opacity:.2;fill:#000;stroke:none"/><path style="fill:#e9f1fc;fill-opacity:1;stroke:none" id="path16" d="M 10.125,6.9999999 C 10.125,8.449748 8.9497481,9.625 7.5,9.625 6.0502527,9.625 4.875,8.449748 4.875,6.9999999 c 0,-1.4497474 1.1752527,-2.625 2.625,-2.625 1.4497481,0 2.625,1.1752526 2.625,2.625 z"/><path style="opacity:.2;fill:#000;fill-opacity:1" id="path4155" d="m 7.5,0 c -3.8659932,0 -7,3.1340068 -7,7 0,0.1476323 0.01321,0.2921363 0.0222168,0.4375 C 0.74906651,3.7762786 3.7816391,0.875 7.5,0.875 c 3.718361,0 6.750934,2.9012786 6.977783,6.5625 C 14.48679,7.2921363 14.5,7.1476323 14.5,7 14.5,3.1340068 11.365993,0 7.5,0 Z"/></svg>