<svg xmlns="http://www.w3.org/2000/svg" xmlns:svg="http://www.w3.org/2000/svg" xmlns:xlink="http://www.w3.org/1999/xlink" id="svg2" width="100%" height="100%" version="1.1" viewBox="0 0 16 16"><metadata id="metadata18"/><defs id="defs16"><linearGradient id="linearGradient3809"><stop id="stop7" offset="0" style="stop-color:#e5e5e5"/><stop id="stop9" offset="1" style="stop-color:#f9f9f9"/></linearGradient><linearGradient id="linearGradient3832" x1="1" x2="15" gradientTransform="translate(0 -16)" gradientUnits="userSpaceOnUse" xlink:href="#linearGradient3809"/><linearGradient id="linearGradient3853" x1="402.25" x2="396.617" y1="507.862" y2="502.854" gradientTransform="matrix(1.0666667,0,0,1.0666667,-418.66668,-532.65303)" gradientUnits="userSpaceOnUse" xlink:href="#linearGradient3053"/><linearGradient id="linearGradient3053"><stop style="stop-color:#75afff;stop-opacity:1" id="stop3055" offset="0"/><stop style="stop-color:#8cbaff;stop-opacity:1" id="stop3057" offset="1"/></linearGradient><linearGradient id="linearGradient3856" x1="404" x2="398.375" y1="514.237" y2="503.703" gradientTransform="matrix(1.0666667,0,0,1.0666667,-418.66668,-532.65303)" gradientUnits="userSpaceOnUse" xlink:href="#linearGradient3046"/><linearGradient id="linearGradient3046"><stop style="stop-color:#87b7ff;stop-opacity:1" id="stop3049" offset="0"/><stop style="stop-color:#98c1ff;stop-opacity:1" id="stop3051" offset="1"/></linearGradient></defs><rect id="rect3024" width="16" height="16" x="0" y="0" rx="3.267" ry="3.267" style="fill:url(#linearGradient3856);fill-opacity:1;stroke:none"/><rect style="fill:url(#linearGradient3853);fill-opacity:1;stroke:none" id="rect3026" width="13.867" height="13.867" x="1.067" y="1.067" rx="2.831" ry="2.831"/><path id="rect3067" d="m 11.594476,4.3380773 c -0.267296,0.050027 -0.533483,0.223552 -0.7,0.4666667 l -4.3000007,6.3 -1.6333337,-1.6333332 c -0.416736,-0.416736 -1.083264,-0.416736 -1.5,0 -0.416736,0.4167365 -0.416736,1.0832642 0,1.4999992 l 2.366667,2.366667 0.1666667,0.166667 c 0.044907,0.04437 0.079253,0.09632 0.1333333,0.133333 0.041707,0.02859 0.089387,0.0448 0.1333333,0.06667 0.054507,0.02688 0.1092907,0.04971 0.1666667,0.06667 0.032427,0.0096 0.0672,0.02667 0.099947,0.03328 0.021013,0.0043 0.04544,-0.0032 0.066667,0 0.090027,0.01152 0.176608,0.01152 0.2666666,0 0.090027,-0.01163 0.1813227,-0.03189 0.2666667,-0.06667 0.1339627,-0.05301 0.2612587,-0.126603 0.3666667,-0.233334 0.044373,-0.04491 0.09632,-0.07936 0.1333333,-0.133333 L 12.66109,6.0046937 c 0.333034,-0.4862293 0.219562,-1.1669547 -0.266667,-1.5 C 12.151308,4.3381733 11.861718,4.28804 11.594422,4.338024 Z" style="opacity:.2;fill:#000;fill-opacity:1;stroke:none"/><path id="rect3828" d="m 11.594476,3.271592 c -0.267296,0.050027 -0.533483,0.223552 -0.7,0.4666666 L 6.5944753,10.038259 4.9611416,8.4049254 c -0.416736,-0.416736 -1.083264,-0.416736 -1.5,0 -0.416736,0.4167361 -0.416736,1.0832641 0,1.5000005 l 2.366667,2.3666661 0.1666667,0.166666 c 0.044907,0.04437 0.079253,0.09632 0.1333333,0.133334 0.041707,0.02859 0.089387,0.0448 0.1333333,0.06667 0.054507,0.02688 0.1092907,0.04971 0.1666667,0.06667 0.032427,0.0096 0.0672,0.02667 0.099947,0.03328 0.021013,0.0043 0.04544,-0.0032 0.066667,0 0.090027,0.01163 0.176608,0.01163 0.2666666,0 0.090027,-0.01163 0.1813227,-0.03189 0.2666667,-0.06667 0.1339627,-0.05301 0.2612587,-0.126613 0.3666667,-0.233333 0.044373,-0.04491 0.09632,-0.07925 0.1333333,-0.133333 L 12.66109,4.9382093 c 0.333034,-0.4862293 0.219562,-1.1669547 -0.266667,-1.5 C 12.151308,3.271688 11.861718,3.2215546 11.594422,3.2715386 Z" style="fill:#e9f1fc;fill-opacity:1;stroke:none"/></svg>