<svg xmlns="http://www.w3.org/2000/svg" xmlns:svg="http://www.w3.org/2000/svg" xmlns:xlink="http://www.w3.org/1999/xlink" id="svg2" width="16" height="16" version="1.1" viewBox="0 0 16 16"><metadata id="metadata20"/><defs id="defs4"><linearGradient id="linearGradient3809"><stop style="stop-color:#e5e5e5" id="stop7" offset="0"/><stop style="stop-color:#f9f9f9" id="stop9" offset="1"/></linearGradient><linearGradient id="linearGradient3832" x1="1" x2="15" gradientTransform="translate(0 -16)" gradientUnits="userSpaceOnUse" xlink:href="#linearGradient3809"/></defs><rect style="fill:#fff" id="rect12" width="14" height="14" x="1" y="-15" rx="1" transform="rotate(90)"/><path style="fill:#aaa" id="path14" d="M 2,0 C 0.892,0 0,0.892 0,2 l 0,12 c 0,1.108 0.892,2 2,2 l 12,0 c 1.108,0 2,-0.892 2,-2 L 16,2 C 16,0.892 15.108,0 14,0 L 2,0 z m 0,1 12,0 c 0.554,0 1,0.446 1,1 l 0,12 c 0,0.554 -0.446,1 -1,1 L 2,15 C 1.446,15 1,14.554 1,14 L 1,2 C 1,1.446 1.446,1 2,1 z"/><rect style="fill:gray" id="rect16" width="8" height="2" x="4" y="7"/></svg>