<svg xmlns="http://www.w3.org/2000/svg" xmlns:svg="http://www.w3.org/2000/svg" xmlns:xlink="http://www.w3.org/1999/xlink" id="svg2" width="16" height="16" version="1.1" viewBox="0 0 16 16"><metadata id="metadata20"/><defs id="defs4"><linearGradient id="linearGradient3793"><stop style="stop-color:#e5e5e5" id="stop7" offset="0"/><stop style="stop-color:#f9f9f9" id="stop9" offset="1"/></linearGradient><linearGradient id="linearGradient3819" x1="1" x2="15" gradientTransform="matrix(0 1 -1 0 16 0)" gradientUnits="userSpaceOnUse" xlink:href="#linearGradient3793"/></defs><path style="fill:#fff" id="path12" d="M 7.9999998,15 C 4.1340073,15 1.0000003,11.865993 1.0000003,7.9999999 c 0,-3.8659932 3.1340069,-7 6.9999995,-7 3.8659932,0 7.0000002,3.1340068 7.0000002,7 C 15,11.865993 11.865993,15 7.9999997,15 z"/><path style="fill:#aaa;fill-opacity:.94117647;opacity:.622" id="path14" d="M 8,0 C 3.581722,0 0,3.581722 0,8 c 0,4.418278 3.581722,8 8,8 4.418278,0 8,-3.581722 8,-8 C 16,3.581722 12.418278,0 8,0 z m 0,1 c 3.865993,0 7,3.1340068 7,7 0,3.865993 -3.134007,7 -7,7 C 4.1340068,15 1,11.865993 1,8 1,4.1340068 4.1340068,1 8,1 z"/><rect style="fill:#393939;fill-opacity:.94117647;opacity:.595" id="rect16" width="8" height="2" x="4" y="7"/></svg>