<svg xmlns="http://www.w3.org/2000/svg" xmlns:svg="http://www.w3.org/2000/svg" xmlns:xlink="http://www.w3.org/1999/xlink" id="svg2" width="16" height="16" version="1.1" viewBox="0 0 16 16"><metadata id="metadata20"/><defs id="defs4"><linearGradient id="linearGradient3799" x1="1" x2="15" gradientTransform="matrix(0 1 -1 0 16 0)" gradientUnits="userSpaceOnUse" xlink:href="#linearGradient3793"/><linearGradient id="linearGradient3793"><stop style="stop-color:#e5e5e5" id="stop8" offset="0"/><stop style="stop-color:#f9f9f9" id="stop10" offset="1"/></linearGradient><linearGradient id="linearGradient3832" x1="1" x2="15" gradientTransform="translate(0 -16)" gradientUnits="userSpaceOnUse" xlink:href="#linearGradient3793"/><linearGradient id="linearGradient3053"><stop id="stop3055" offset="0" style="stop-color:#75afff;stop-opacity:1"/><stop id="stop3057" offset="1" style="stop-color:#8cbaff;stop-opacity:1"/></linearGradient><linearGradient id="linearGradient3046"><stop id="stop3049" offset="0" style="stop-color:#87b7ff;stop-opacity:1"/><stop id="stop3051" offset="1" style="stop-color:#98c1ff;stop-opacity:1"/></linearGradient><linearGradient id="linearGradient4199" x1="10.126" x2="4.989" y1="12.382" y2="5.346" gradientUnits="userSpaceOnUse" xlink:href="#linearGradient3053"/><linearGradient id="linearGradient4201" x1="11.932" x2="2.983" y1="13.695" y2="2.441" gradientUnits="userSpaceOnUse" xlink:href="#linearGradient3046"/></defs><path style="fill:#fff" id="path12" d="M 8,15 C 4.134007,15 1,11.865993 1,8 1,4.1340068 4.134007,1 8,1 c 3.865993,0 7,3.1340068 7,7 0,3.865993 -3.134007,7 -7,7 z"/><path style="fill:url(#linearGradient4199);fill-opacity:1" id="path4150" d="M 8,0 C 3.5817221,0 1.5e-8,3.5817221 1.5e-8,8 1.5e-8,12.418278 3.5817221,16 8,16 12.418278,16 16,12.418278 16,8 16,3.5817221 12.418278,0 8,0 Z"/><path style="fill:url(#linearGradient4201);fill-opacity:.99215686;opacity:1" id="path14" d="M 8,0 C 3.581722,0 0,3.581722 0,8 c 0,4.418278 3.581722,8 8,8 4.418278,0 8,-3.581722 8,-8 C 16,3.581722 12.418278,0 8,0 z m 0,1 c 3.865993,0 7,3.1340068 7,7 0,3.865993 -3.134007,7 -7,7 C 4.1340068,15 1,11.865993 1,8 1,4.1340068 4.1340068,1 8,1 z"/><path id="path4153" d="M 11,8.9999999 C 11,10.656855 9.656855,12 8,12 6.343146,12 5,10.656855 5,8.9999999 c 0,-1.6568542 1.343146,-3 3,-3 1.656855,0 3,1.3431458 3,3 z" style="fill:#000;stroke:none;opacity:.2"/><path style="fill:#e9f1fc;stroke:none;fill-opacity:1" id="path16" d="M 11,7.9999999 C 11,9.6568549 9.656855,11 8,11 6.343146,11 5,9.6568549 5,7.9999999 c 0,-1.6568542 1.343146,-3 3,-3 1.656855,0 3,1.3431458 3,3 z"/><path style="fill:#000;fill-opacity:1;opacity:.2" id="path4155" d="M 8 0 C 3.5817221 0 5.9211895e-16 3.5817221 0 8 C 0 8.1687226 0.015097196 8.3338701 0.025390625 8.5 C 0.28464744 4.315747 3.7504447 1 8 1 C 12.249555 1 15.715353 4.315747 15.974609 8.5 C 15.984903 8.3338701 16 8.1687226 16 8 C 16 3.5817221 12.418278 0 8 0 z"/></svg>