<svg xmlns="http://www.w3.org/2000/svg" xmlns:svg="http://www.w3.org/2000/svg" xmlns:xlink="http://www.w3.org/1999/xlink" id="svg2" width="16" height="16" version="1.1" viewBox="0 0 16 16"><metadata id="metadata18"/><defs id="defs4"><linearGradient id="linearGradient3793"><stop style="stop-color:#e5e5e5" id="stop7" offset="0"/><stop style="stop-color:#f9f9f9" id="stop9" offset="1"/></linearGradient><linearGradient id="linearGradient3799" x1="1" x2="15" gradientTransform="matrix(0 1 -1 0 16 0)" gradientUnits="userSpaceOnUse" xlink:href="#linearGradient3793"/></defs><path style="fill:#fff;opacity:.527" id="path12" d="M 8,15 C 4.134007,15 1,11.865993 1,8 1,4.1340068 4.134007,1 8,1 c 3.865993,0 7,3.1340068 7,7 0,3.865993 -3.134007,7 -7,7 z"/><path style="fill:#bfbfbf;fill-opacity:.98431373;opacity:.34" id="path14" d="M 8,0 C 3.581722,0 0,3.581722 0,8 c 0,4.418278 3.581722,8 8,8 4.418278,0 8,-3.581722 8,-8 C 16,3.581722 12.418278,0 8,0 z m 0,1 c 3.865993,0 7,3.1340068 7,7 0,3.865993 -3.134007,7 -7,7 C 4.1340068,15 1,11.865993 1,8 1,4.1340068 4.1340068,1 8,1 z"/><path style="fill:#000;opacity:.011" id="path4154" d="M 8 0 C 3.5817223 0 0 3.5817221 0 8 C 0 8.1687226 0.015097196 8.3338701 0.025390625 8.5 C 0.28464745 4.315747 3.7504449 1 8 1 C 12.249555 1 15.715353 4.315747 15.974609 8.5 C 15.984903 8.3338701 16 8.1687226 16 8 C 16 3.5817221 12.418278 0 8 0 z"/></svg>