<svg xmlns="http://www.w3.org/2000/svg" xmlns:svg="http://www.w3.org/2000/svg" id="svg2" width="100%" height="100%" version="1.1" viewBox="0 0 16 16"><metadata id="metadata14"/><path id="path6" d="m 7.9368654,0.6212 c 4.1798076,0 7.5682106,3.3036 7.5682106,7.3788 0,4.0752 -3.388403,7.3788 -7.5682106,7.3788 -4.1798073,0 -7.56821074,-3.3036 -7.56821074,-7.3788 0,-4.0752 3.38840344,-7.3788 7.56821074,-7.3788 z" style="fill:#f2f2f2"/><path id="path8" d="M 8,0 C 3.581722,0 0,3.581722 0,8 c 0,4.418278 3.581722,8 8,8 4.418278,0 8,-3.581722 8,-8 C 16,3.581722 12.418278,0 8,0 z m 0,1 c 3.865993,0 7,3.1340068 7,7 0,3.865993 -3.134007,7 -7,7 C 4.1340068,15 1,11.865993 1,8 1,4.1340068 4.1340068,1 8,1 z" style="fill:#aaa"/></svg>