<svg xmlns="http://www.w3.org/2000/svg" xmlns:svg="http://www.w3.org/2000/svg" xmlns:xlink="http://www.w3.org/1999/xlink" id="svg11300" width="24" height="24" version="1.0" style="display:inline;enable-background:new"><defs id="defs3"><linearGradient id="linearGradient3814"><stop style="stop-color:#000;stop-opacity:1" id="stop3816" offset="0"/><stop style="stop-color:#000;stop-opacity:0" id="stop3818" offset="1"/></linearGradient><linearGradient id="linearGradient3806"><stop style="stop-color:#000;stop-opacity:1" id="stop3808" offset="0"/><stop style="stop-color:#000;stop-opacity:0" id="stop3810" offset="1"/></linearGradient><linearGradient id="linearGradient3812" x1="24" x2="24" y1="2" y2="22" gradientUnits="userSpaceOnUse" xlink:href="#linearGradient3806"/><linearGradient id="linearGradient3822" x1="24" x2="24" y1="2" y2="22" gradientUnits="userSpaceOnUse" xlink:href="#linearGradient3814"/></defs><metadata id="metadata4"/><g style="display:inline" id="layer1" transform="translate(0,-276)"><path style="opacity:.4;fill:#000;fill-opacity:1;stroke:none" id="rect3023" d="M 3 1 C 1.892 1 1 1.892 1 3 L 1 21 C 1 22.108 1.892 23 3 23 L 21 23 C 22.108 23 23 22.108 23 21 L 23 3 C 23 1.892 22.108 1 21 1 L 3 1 z M 4 2 L 20 2 C 21.108 2 22 2.892 22 4 L 22 20 C 22 21.108 21.108 22 20 22 L 4 22 C 2.892 22 2 21.108 2 20 L 2 4 C 2 2.892 2.892 2 4 2 z" transform="translate(0,276)"/><rect style="opacity:.7;fill:#fff;fill-opacity:1;stroke:none" id="rect3021" width="20" height="20" x="2" y="2" rx="2" ry="2" transform="translate(0,276)"/><path style="opacity:.08;fill:url(#linearGradient3822);fill-opacity:1;stroke:none" id="rect3033" d="M 4 2 C 2.892 2 2 2.892 2 4 L 2 20 C 2 21.108 2.892 22 4 22 L 20 22 C 21.108 22 22 21.108 22 20 L 22 4 C 22 2.892 21.108 2 20 2 L 4 2 z M 6 4 L 18 4 C 19.108 4 20 4.892 20 6 L 20 18 C 20 19.108 19.108 20 18 20 L 6 20 C 4.892 20 4 19.108 4 18 L 4 6 C 4 4.892 4.892 4 6 4 z" transform="translate(0,276)"/><path style="opacity:.2;fill:url(#linearGradient3812);fill-opacity:1;stroke:none" id="rect3028" d="M 4 2 C 2.892 2 2 2.892 2 4 L 2 20 C 2 21.108 2.892 22 4 22 L 20 22 C 21.108 22 22 21.108 22 20 L 22 4 C 22 2.892 21.108 2 20 2 L 4 2 z M 5 3 L 19 3 C 20.108 3 21 3.892 21 5 L 21 19 C 21 20.108 20.108 21 19 21 L 5 21 C 3.892 21 3 20.108 3 19 L 3 5 C 3 3.892 3.892 3 5 3 z" transform="translate(0,276)"/></g></svg>