<svg xmlns="http://www.w3.org/2000/svg" xmlns:svg="http://www.w3.org/2000/svg" xmlns:xlink="http://www.w3.org/1999/xlink" id="svg2" width="38" height="24" version="1.1"><defs id="defs4"><linearGradient id="linearGradient3790"><stop style="stop-color:#a0a0a0;stop-opacity:1" id="stop3793" offset="0"/><stop style="stop-color:#bebebe;stop-opacity:1" id="stop3795" offset="1"/></linearGradient><linearGradient id="linearGradient3772"><stop style="stop-color:#000;stop-opacity:.36097562" id="stop3774" offset="0"/><stop style="stop-color:#000;stop-opacity:.22352941" id="stop3776" offset="1"/></linearGradient><linearGradient id="linearGradient3763"><stop style="stop-color:#000;stop-opacity:1" id="stop3765" offset="0"/><stop style="stop-color:#000;stop-opacity:1" id="stop3767" offset="1"/></linearGradient><linearGradient id="linearGradient3769"><stop style="stop-color:#cdcdcd;stop-opacity:1" id="stop3771" offset="0"/><stop style="stop-color:#fcfcfc;stop-opacity:1" id="stop3773" offset="1"/></linearGradient><linearGradient id="linearGradient3759"><stop style="stop-color:#dfdfdf;stop-opacity:1" id="stop3761" offset="0"/><stop id="stop3762" offset=".25" style="stop-color:#eee;stop-opacity:1"/><stop style="stop-color:#eee;stop-opacity:1" id="stop3790" offset=".45"/><stop id="stop3792" offset=".5" style="stop-color:#fafafa;stop-opacity:1"/><stop style="stop-color:#fff;stop-opacity:1" id="stop3763" offset="1"/></linearGradient><linearGradient id="linearGradient3765" x1="25" x2="25" y1="1033.362" y2="1051.362" gradientTransform="matrix(1.037037,0,0,1.1111111,-1.037037,-115.818)" gradientUnits="userSpaceOnUse" xlink:href="#linearGradient3759"/><linearGradient id="linearGradient3775" x1="44.441" x2="44.441" y1="10.434" y2="17.121" gradientUnits="userSpaceOnUse" xlink:href="#linearGradient3769"/><linearGradient id="linearGradient3967" x1="35" x2="35" y1="3" y2="26" gradientTransform="matrix(1.8,0,0,1.125,-33.2,1029.9872)" gradientUnits="userSpaceOnUse" xlink:href="#linearGradient4071-3-6"/><linearGradient id="linearGradient4071-3-6"><stop style="stop-color:#000;stop-opacity:.60392159" id="stop4073-8-9" offset="0"/><stop style="stop-color:#000;stop-opacity:0" id="stop4075-4-4" offset="1"/></linearGradient><linearGradient id="linearGradient3895" x1="35" x2="35" y1="3" y2="26" gradientTransform="matrix(1.8666667,0,0,1.25,-35.466667,1028.6122)" gradientUnits="userSpaceOnUse" xlink:href="#linearGradient4071-3-6"/><linearGradient id="linearGradient3950" x1="35" x2="35" y1="3" y2="38" gradientTransform="matrix(1.8,0,0,1.125,-33.2,1029.9872)" gradientUnits="userSpaceOnUse" xlink:href="#linearGradient4071-3"/><linearGradient id="linearGradient4071-3"><stop style="stop-color:#000;stop-opacity:.63529414" id="stop4073-8" offset="0"/><stop style="stop-color:#000;stop-opacity:.19607843" id="stop4075-4" offset="1"/></linearGradient><linearGradient id="linearGradient3912" x1="35.071" x2="35" y1="3.16" y2="38" gradientTransform="matrix(1.8333334,0,0,1.25,-33.833334,1028.4122)" gradientUnits="userSpaceOnUse" xlink:href="#linearGradient4071-3"/><linearGradient id="linearGradient3046" x1="44.441" x2="44.441" y1="10.434" y2="17.121" gradientUnits="userSpaceOnUse" xlink:href="#linearGradient3769"/><linearGradient id="linearGradient3041" x1="35.071" x2="35" y1="3.16" y2="38" gradientTransform="matrix(1.8333334,0,0,1.25,-28.833334,1049.4122)" gradientUnits="userSpaceOnUse" xlink:href="#linearGradient4071-3"/><linearGradient id="linearGradient3045" x1="35" x2="35" y1="3" y2="26" gradientTransform="matrix(1.8666667,0,0,1.25,-42.966666,1026.6122)" gradientUnits="userSpaceOnUse" xlink:href="#linearGradient4071-3-6"/><linearGradient id="linearGradient3049" x1="25" x2="25" y1="1033.362" y2="1051.362" gradientTransform="matrix(1.0191283,0,0,1.0573853,4.4644035,-60.816238)" gradientUnits="userSpaceOnUse" xlink:href="#linearGradient3759"/><linearGradient id="linearGradient3797" x1="46" x2="46" y1="1031.362" y2="1051.362" gradientTransform="matrix(0.98273097,0,0,0.95164678,-83.024213,58.340491)" gradientUnits="userSpaceOnUse" xlink:href="#linearGradient3790"/><linearGradient id="linearGradient3960" x1="44.441" x2="44.441" y1="10.434" y2="17.121" gradientUnits="userSpaceOnUse" xlink:href="#linearGradient3769"/><linearGradient id="linearGradient3254" x1="43.321" x2="43.321" y1="16.512" y2="9.942" gradientUnits="userSpaceOnUse" xlink:href="#linearGradient3248"/><linearGradient id="linearGradient3248"><stop style="stop-color:#f9f9f9;stop-opacity:1" id="stop3250" offset="0"/><stop style="stop-color:#fff;stop-opacity:1" id="stop3252" offset="1"/></linearGradient><linearGradient id="linearGradient3226" x1="33" x2="33" y1="1049.362" y2="1033.362" gradientTransform="matrix(0.98751541,0,0,1.0003212,-24.74165,-1.3344598)" gradientUnits="userSpaceOnUse" xlink:href="#linearGradient3242"/><linearGradient id="linearGradient3242"><stop id="stop3244" offset="0" style="stop-color:#4ed164;stop-opacity:1"/><stop id="stop3246" offset="1" style="stop-color:#4dd863;stop-opacity:1"/></linearGradient><linearGradient id="linearGradient3228" x1="27.909" x2="27.909" y1="1050.725" y2="1031.777" gradientTransform="matrix(0.96988182,0,0,0.95030703,-24.159744,50.854188)" gradientUnits="userSpaceOnUse" xlink:href="#linearGradient3230"/><linearGradient id="linearGradient3230"><stop id="stop3232" offset="0" style="stop-color:#4db866;stop-opacity:1"/><stop id="stop3234" offset="1" style="stop-color:#57bf70;stop-opacity:1"/></linearGradient><linearGradient id="linearGradient3561" x1="50.686" x2="50.686" y1="1031.777" y2="1051.774" gradientTransform="matrix(0.96988182,0,0,0.95030703,-24.159744,50.85424)" gradientUnits="userSpaceOnUse" xlink:href="#linearGradient3790"/><linearGradient id="linearGradient3618" x1="43.321" x2="43.321" y1="16.512" y2="9.942" gradientUnits="userSpaceOnUse" xlink:href="#linearGradient3248"/><linearGradient id="linearGradient4388" x1="35" x2="35" y1="3" y2="26" gradientTransform="matrix(1.8666667,0,0,1.25,-3.3777284,1026.6122)" gradientUnits="userSpaceOnUse" xlink:href="#linearGradient4071-3-6"/><linearGradient id="linearGradient4398" x1="19.723" x2="19.723" y1="1030.949" y2="1059.7" gradientTransform="matrix(1.0310534,0,0,1.0522882,-0.5900144,-1082.7609)" gradientUnits="userSpaceOnUse" xlink:href="#linearGradient4071-3-6"/><linearGradient id="linearGradient4402" x1="19.723" x2="19.723" y1="1030.949" y2="1059.7" gradientTransform="matrix(0.90607723,0,0,0.84183056,1.7845328,164.55351)" gradientUnits="userSpaceOnUse" xlink:href="#linearGradient4071-3-6"/><linearGradient id="linearGradient4405" x1="19.723" x2="19.723" y1="1030.949" y2="1053.764" gradientTransform="matrix(1.0310534,0,0,1.0522882,-0.5900144,-1082.7609)" gradientUnits="userSpaceOnUse" xlink:href="#linearGradient4071-3-6"/></defs><metadata id="metadata7"/><g id="layer1" transform="translate(0,-1028.3622)"><path style="fill:#f0f0f0;fill-opacity:1;stroke:url(#linearGradient3561);stroke-width:.99389768000000001;stroke-miterlimit:4;opacity:.75" id="rect2989-6" d="m 12.695768,1030.8591 12.608464,0 c 5.373146,0 9.698819,4.2384 9.698819,9.5031 0,5.2647 -4.325673,9.5031 -9.698819,9.5031 l -12.608464,0 c -5.373146,0 -9.698819,-4.2384 -9.698819,-9.5031 0,-5.2647 4.325673,-9.5031 9.698819,-9.5031 z"/><path style="opacity:.20000000000000001;fill:url(#linearGradient4405);fill-opacity:1;stroke:none" id="path4390" d="M 12.5 2 C 6.9599998 2 2.5 6.46 2.5 12 C 2.5 17.54 6.9599998 22 12.5 22 L 25.5 22 C 31.04 22 35.5 17.54 35.5 12 C 35.5 6.46 31.04 2 25.5 2 L 12.5 2 z M 13.28125 4 L 24.71875 4 C 29.587234 4 33.5 7.568 33.5 12 C 33.5 16.432 29.587234 20 24.71875 20 L 13.28125 20 C 8.4127658 20 4.5 16.432 4.5 12 C 4.5 7.568 8.4127658 4 13.28125 4 z" transform="translate(0,1028.3622)"/><g id="g3610" transform="translate(-13,0)"><path id="path3198" d="m 49,14 c 0,2.209139 -2.014719,4 -4.5,4 -2.485281,0 -4.5,-1.790861 -4.5,-4 0,-2.209139 2.014719,-4 4.5,-4 2.485281,0 4.5,1.790861 4.5,4 z" transform="matrix(2.2222222,0,0,2.5,-73.388888,1007.3622)" style="opacity:.05;fill:#000;fill-opacity:1;stroke:none"/><path style="opacity:.05;fill:#000;fill-opacity:1;stroke:none" id="path3204" d="m 49,14 c 0,2.209139 -2.014719,4 -4.5,4 -2.485281,0 -4.5,-1.790861 -4.5,-4 0,-2.209139 2.014719,-4 4.5,-4 2.485281,0 4.5,1.790861 4.5,4 z" transform="matrix(2.2222222,0,0,2.5,-73.388888,1006.8622)"/><path style="opacity:.05;fill:#000;fill-opacity:1;stroke:none" id="path3200" d="m 49,14 c 0,2.209139 -2.014719,4 -4.5,4 -2.485281,0 -4.5,-1.790861 -4.5,-4 0,-2.209139 2.014719,-4 4.5,-4 2.485281,0 4.5,1.790861 4.5,4 z" transform="matrix(2.2222222,0,0,2.5,-73.388888,1006.3622)"/><path id="path3202" d="m 49,14 c 0,2.209139 -2.014719,4 -4.5,4 -2.485281,0 -4.5,-1.790861 -4.5,-4 0,-2.209139 2.014719,-4 4.5,-4 2.485281,0 4.5,1.790861 4.5,4 z" transform="matrix(2.2222222,0,0,2.5,-73.388888,1005.8622)" style="opacity:.05;fill:#000;fill-opacity:1;stroke:none"/><path style="opacity:.1;fill:#000;fill-opacity:1;stroke:none" id="path3196" d="m 49,14 c 0,2.209139 -2.014719,4 -4.5,4 -2.485281,0 -4.5,-1.790861 -4.5,-4 0,-2.209139 2.014719,-4 4.5,-4 2.485281,0 4.5,1.790861 4.5,4 z" transform="matrix(2.2222222,0,0,2.5,-73.388888,1005.3622)"/><path id="path3767-5" d="m 49,14 c 0,2.209139 -2.014719,4 -4.5,4 -2.485281,0 -4.5,-1.790861 -4.5,-4 0,-2.209139 2.014719,-4 4.5,-4 2.485281,0 4.5,1.790861 4.5,4 z" transform="matrix(2,0,0,2.25,-63.5,1008.8622)" style="fill:url(#linearGradient3618);fill-opacity:1;stroke:none"/></g><path style="fill:none;stroke:#afafaf;stroke-width:2;stroke-linecap:square;stroke-miterlimit:4;stroke-opacity:1;stroke-dasharray:none;opacity:.05" id="path3026" d="m 48,12 c 0,3.313708 -2.686292,6 -6,6 -3.313708,0 -6,-2.686292 -6,-6 0,-3.3137085 2.686292,-6 6,-6 3.313708,0 6,2.6862915 6,6 z" transform="matrix(0.42857143,0,0,0.42857143,9.5,1035.2193)"/></g></svg>