<svg xmlns="http://www.w3.org/2000/svg" xmlns:svg="http://www.w3.org/2000/svg" id="svg2" width="62" height="62" version="1.1" viewBox="0 0 62 62"><metadata id="metadata12"/><defs id="defs4"><clipPath id="clipPath6"><path id="path8" d="m 4,24 c -2.216,0 -4,1.784 -4,4 l 0,56 c 0,2.216 1.784,4 4,4 l 56,0 c 2.216,0 4,-1.784 4,-4 l 0,-56 c 0,-2.216 -1.784,-4 -4,-4 L 4,24 z m 6,6 44,0 c 2.216,0 4,1.784 4,4 l 0,44 c 0,2.216 -1.784,4 -4,4 L 10,82 C 7.784,82 6,80.216 6,78 L 6,34 c 0,-2.216 1.784,-4 4,-4 z"/></clipPath></defs></svg>