<svg xmlns="http://www.w3.org/2000/svg" xmlns:svg="http://www.w3.org/2000/svg" xmlns:xlink="http://www.w3.org/1999/xlink" id="svg2" width="16" height="16" version="1.0"><defs id="defs4"><linearGradient id="linearGradient4036" x1="11.64" x2="11.64" y1="4.078" y2="17.924" gradientUnits="userSpaceOnUse"><stop id="stop4038" offset="0" style="stop-color:#282828;stop-opacity:1"/><stop id="stop4040" offset="1" style="stop-color:#787878;stop-opacity:1"/></linearGradient><linearGradient id="ButtonColor" x1="10.32" x2="10.32" y1="21" y2=".999" gradientUnits="userSpaceOnUse"><stop style="stop-color:#c8c8c8;stop-opacity:1" id="stop3189" offset="0"/><stop style="stop-color:#e6e6e6;stop-opacity:1" id="stop3191" offset="1"/></linearGradient><linearGradient id="linearGradient3629" x1="0" x2="29.017" y1="8" y2="8" gradientTransform="matrix(0,-1,1,0,0,16)" gradientUnits="userSpaceOnUse" xlink:href="#linearGradient3327"/><linearGradient id="linearGradient3327"><stop style="stop-color:#000;stop-opacity:1" id="stop3330" offset="0"/><stop style="stop-color:#000;stop-opacity:0" id="stop3333" offset="1"/></linearGradient><linearGradient id="linearGradient3117" x1="1" x2="15" y1="9" y2="9" gradientTransform="translate(-17,-2)" gradientUnits="userSpaceOnUse" xlink:href="#ButtonColor"/><linearGradient id="linearGradient3041" x1="7.198" x2="7.198" y1="3" y2="11" gradientTransform="translate(-1,1)" gradientUnits="userSpaceOnUse" xlink:href="#linearGradient4036"/><linearGradient id="linearGradient3814" x1="1" x2="15" y1="9" y2="9" gradientTransform="translate(-17,-2)" gradientUnits="userSpaceOnUse" xlink:href="#ButtonColor"/></defs><metadata id="metadata7"/><g id="layer3" style="display:inline"><rect id="rect3196" width="16" height="16" x="-16" y="-16" rx="8" ry="8" transform="matrix(0,-1,-1,0,0,0)" style="fill:#fff;fill-opacity:1;fill-rule:nonzero;stroke:none;display:inline"/><rect style="fill:#000;fill-opacity:1;fill-rule:nonzero;stroke:none;display:inline" id="rect3820" width="12" height="12" x="-14" y="-14" rx="6" ry="6" transform="matrix(0,-1,-1,0,0,0)"/><path style="fill:#fff;fill-opacity:1;stroke:none" id="path3043" d="M 9,4 9,7 12,7.0268938 12,9 9,9 8.988403,12 7,12 7,9 4,9 4,7.0268938 7,7 7.011597,4 z"/></g></svg>