<svg xmlns="http://www.w3.org/2000/svg" xmlns:svg="http://www.w3.org/2000/svg" xmlns:xlink="http://www.w3.org/1999/xlink" id="svg5369" width="96" height="48" version="1.1" style="display:inline"><metadata id="metadata5375"/><defs id="defs5373"><linearGradient id="linearGradient5702" x1="25" x2="22.4" y1="193" y2="215.8" gradientTransform="matrix(0.83333333,0,0,-0.83333333,4.3333334,364.83333)" gradientUnits="userSpaceOnUse" xlink:href="#linearGradient5584"/><linearGradient id="linearGradient5584"><stop style="stop-color:#fff;stop-opacity:1" id="stop5586" offset="0"/><stop style="stop-color:#fff;stop-opacity:0" id="stop5588" offset="1"/></linearGradient><linearGradient id="linearGradient5704" x1="28.4" x2="22.4" y1="215.8" y2="195.4" gradientTransform="matrix(-0.83333333,0,0,-0.83333333,47.666667,364.83333)" gradientUnits="userSpaceOnUse" xlink:href="#linearGradient5584"/><linearGradient id="linearGradient4693"><stop style="stop-color:#fff;stop-opacity:1" id="stop4695" offset="0"/><stop style="stop-color:#fff;stop-opacity:0" id="stop4697" offset="1"/></linearGradient><linearGradient id="linearGradient4702" x1="28.4" x2="22.4" y1="215.8" y2="195.4" gradientTransform="matrix(-0.83333333,0,0,-0.83333333,47.666667,364.83333)" gradientUnits="userSpaceOnUse" xlink:href="#linearGradient5584"/><linearGradient id="linearGradient3939" x1="18" x2="15" y1="19" y2="-7" gradientUnits="userSpaceOnUse" xlink:href="#linearGradient5584"/><linearGradient id="linearGradient3943" x1="9" x2="19" y1="-7" y2="13" gradientTransform="matrix(-1,0,0,1,24,0)" gradientUnits="userSpaceOnUse" xlink:href="#linearGradient5584"/></defs><g id="layer1" style="display:none"><rect style="color:#000;fill:#000;fill-opacity:1;fill-rule:nonzero;stroke:none;stroke-width:1;marker:none;visibility:visible;display:inline;overflow:visible;enable-background:accumulate" id="rect12451" width="24" height="24" x="0" y="0"/><rect id="rect12453" width="24" height="24" x="0" y="24" style="color:#000;fill:#000;fill-opacity:1;fill-rule:nonzero;stroke:none;stroke-width:1;marker:none;visibility:visible;display:inline;overflow:visible;enable-background:accumulate"/><rect id="rect12455" width="24" height="24" x="24" y="0" style="color:#000;fill:#000;fill-opacity:1;fill-rule:nonzero;stroke:none;stroke-width:1;marker:none;visibility:visible;display:inline;overflow:visible;enable-background:accumulate"/><rect style="color:#000;fill:#000;fill-opacity:1;fill-rule:nonzero;stroke:none;stroke-width:1;marker:none;visibility:visible;display:inline;overflow:visible;enable-background:accumulate" id="rect12457" width="24" height="24" x="24" y="24"/><rect style="color:#000;fill:#000;fill-opacity:1;fill-rule:nonzero;stroke:none;stroke-width:1;marker:none;visibility:visible;display:inline;overflow:visible;enable-background:accumulate" id="rect12459" width="24" height="24" x="48" y="0"/><rect id="rect12461" width="24" height="24" x="48" y="24" style="color:#000;fill:#000;fill-opacity:1;fill-rule:nonzero;stroke:none;stroke-width:1;marker:none;visibility:visible;display:inline;overflow:visible;enable-background:accumulate"/><rect id="rect12463" width="24" height="24" x="72" y="0" style="color:#000;fill:#000;fill-opacity:1;fill-rule:nonzero;stroke:none;stroke-width:1;marker:none;visibility:visible;display:inline;overflow:visible;enable-background:accumulate"/><rect style="color:#000;fill:#000;fill-opacity:1;fill-rule:nonzero;stroke:none;stroke-width:1;marker:none;visibility:visible;display:inline;overflow:visible;enable-background:accumulate" id="rect12465" width="24" height="24" x="72" y="24"/></g><g id="layer2"><use id="use3964" width="96" height="48" x="0" y="0" transform="matrix(-0.70710678,0.70710678,-0.70710678,-0.70710678,117.94113,52.970562)" xlink:href="#use3956"/><use id="use3962" width="96" height="48" x="0" y="0" transform="matrix(0,1,-1,0,96,24)" xlink:href="#use3956"/><use id="use3960" width="96" height="48" x="0" y="0" transform="matrix(0.70710678,0.70710678,-0.70710678,0.70710678,52.970562,2.0588744)" xlink:href="#use3956"/><use id="use3956" width="96" height="48" x="0" y="0" transform="matrix(-1,0,0,-1,24,48)" xlink:href="#g3948"/><use id="use3958" width="96" height="48" x="0" y="0" transform="matrix(-0.70710678,0.70710678,-0.70710678,-0.70710678,100.97056,12)" xlink:href="#g3948"/><use id="use3954" width="96" height="48" x="0" y="0" transform="matrix(0,1,-1,0,72,4.0136378e-8)" xlink:href="#g3948"/><use id="use3952" width="96" height="48" x="0" y="0" transform="matrix(0.70710678,0.70710678,-0.70710678,0.70710678,36,-4.9705622)" xlink:href="#g3948"/><g id="g3948"><path id="path3157" d="M 12 4 L 12 6 C 15.313708 6 18 8.6862915 18 12 C 18 15.313708 15.313708 18 12 18 C 11.447715 18 11 18.447715 11 19 C 11 19.552285 11.447715 20 12 20 C 16.418278 20 20 16.418278 20 12 C 20 7.581722 16.418278 4 12 4 z" style="opacity:1;color:#000;fill-opacity:1;fill-rule:evenodd;stroke:none;stroke-width:2;stroke-linejoin:round;stroke-miterlimit:4;stroke-opacity:1;stroke-dasharray:none;marker:none;visibility:visible;display:inline;overflow:visible;enable-background:new;fill:url(#linearGradient3939)"/><path style="opacity:1;color:#000;fill:url(#linearGradient3943);fill-opacity:1;fill-rule:evenodd;stroke:none;stroke-width:2;marker:none;visibility:visible;display:inline;overflow:visible;enable-background:new" id="path3941" d="m 12,4 0,2 c -3.313708,0 -6,2.6862915 -6,6 0,3.313708 2.686292,6 6,6 l 0,2 C 7.581722,20 4,16.418278 4,12 4,7.581722 7.581722,4 12,4 z"/></g></g></svg>