<svg xmlns="http://www.w3.org/2000/svg" xmlns:svg="http://www.w3.org/2000/svg" xmlns:xlink="http://www.w3.org/1999/xlink" id="svg11300" width="24" height="24" version="1.0" style="display:inline;enable-background:new"><defs id="defs3"><linearGradient id="linearGradient3991"><stop style="stop-color:#969696;stop-opacity:1" id="stop3993" offset="0"/><stop style="stop-color:#373737;stop-opacity:0" id="stop3995" offset="1"/></linearGradient><linearGradient id="linearGradient3997" x1="24" x2="24" y1="2" y2="22" gradientUnits="userSpaceOnUse" xlink:href="#linearGradient3991"/><linearGradient id="linearGradient4001" x1="24" x2="24" y1="2" y2="22" gradientTransform="matrix(1,0,0,-1,0,300)" gradientUnits="userSpaceOnUse" xlink:href="#linearGradient3991"/></defs><metadata id="metadata4"/><g style="display:inline" id="layer1" transform="translate(0,-276)"><rect style="fill:#fff;fill-opacity:1;stroke:none;opacity:.3" id="rect3005" width="22" height="22" x="1" y="277" rx="2" ry="2"/><rect id="rect3003" width="20" height="20" x="2" y="278" rx="2" ry="2" style="fill:#969696;fill-opacity:1;stroke:none;opacity:.88"/><path id="path3999" d="m 4,298 c -1.108,0 -2,-0.892 -2,-2 l 0,-16 c 0,-1.108 0.892,-2 2,-2 l 16,0 c 1.108,0 2,0.892 2,2 l 0,16 c 0,1.108 -0.892,2 -2,2 l -16,0 z m 1,-1 14,0 c 1.108,0 2,-0.892 2,-2 l 0,-14 c 0,-1.108 -0.892,-2 -2,-2 l -14,0 c -1.108,0 -2,0.892 -2,2 l 0,14 c 0,1.108 0.892,2 2,2 z" style="opacity:1;fill:url(#linearGradient4001);fill-opacity:1;stroke:none"/><path style="fill:url(#linearGradient3997);fill-opacity:1;stroke:none;opacity:1" id="rect3986" d="M 4 2 C 2.892 2 2 2.892 2 4 L 2 20 C 2 21.108 2.892 22 4 22 L 20 22 C 21.108 22 22 21.108 22 20 L 22 4 C 22 2.892 21.108 2 20 2 L 4 2 z M 5 3 L 19 3 C 20.108 3 21 3.892 21 5 L 21 19 C 21 20.108 20.108 21 19 21 L 5 21 C 3.892 21 3 20.108 3 19 L 3 5 C 3 3.892 3.892 3 5 3 z" transform="translate(0,276)"/></g></svg>