<svg xmlns="http://www.w3.org/2000/svg" xmlns:svg="http://www.w3.org/2000/svg" id="svg11300" width="24" height="24" version="1.0" style="display:inline;enable-background:new"><metadata id="metadata4"/><g style="display:inline" id="layer1" transform="translate(0,-276)"><path style="opacity:.3;fill:#fff;fill-opacity:1;stroke:none" id="rect3005" d="m 22,277 c 1.108,0 2,0.892 2,2 l 0,18 c 0,1.108 -0.892,2 -2,2 l -22,0 0,-1 21,0 c 1.108,0 2,-0.892 2,-2 l 0,-16 c 0,-1.108 -0.892,-2 -2,-2 l -21,0 0,-1 22,0 z"/><path style="opacity:.84999999999999998;fill:#969696;fill-opacity:1;stroke:none" id="rect3003" d="m 21,278 c 1.108,0 2,0.892 2,2 l 0,16 c 0,1.108 -0.892,2 -2,2 l -21,0 0,-20 z"/></g></svg>