<svg xmlns="http://www.w3.org/2000/svg" xmlns:svg="http://www.w3.org/2000/svg" xmlns:xlink="http://www.w3.org/1999/xlink" id="svg11300" width="24" height="24" version="1.0" style="display:inline;enable-background:new"><defs id="defs3"><linearGradient id="linearGradient3991"><stop id="stop3993" offset="0" style="stop-color:#969696;stop-opacity:1"/><stop id="stop3995" offset="1" style="stop-color:#373737;stop-opacity:0"/></linearGradient><linearGradient id="linearGradient3939" x1="24" x2="24" y1="2" y2="22" gradientTransform="translate(1,0)" gradientUnits="userSpaceOnUse" xlink:href="#linearGradient3991"/><linearGradient id="linearGradient3942" x1="24" x2="24" y1="2" y2="22" gradientTransform="matrix(1,0,0,-1,1,24)" gradientUnits="userSpaceOnUse" xlink:href="#linearGradient3991"/></defs><metadata id="metadata4"/><g style="display:inline" id="layer1" transform="translate(0,-276)"><path style="fill:#fff;fill-opacity:1;stroke:none;opacity:.3" id="rect3005" d="M 2 1 C 0.892 1 0 1.892 0 3 L 0 21 C 0 22.108 0.892 23 2 23 L 24 23 L 24 22 L 3 22 C 1.892 22 1 21.108 1 20 L 1 4 C 1 2.892 1.892 2 3 2 L 24 2 L 24 1 L 2 1 z" transform="translate(0,276)"/><path style="fill:#969696;fill-opacity:1;stroke:#969696;opacity:.88;stroke-opacity:1" id="rect3003" d="M 3,2 C 1.892,2 1,2.892 1,4 l 0,16 c 0,1.108 0.892,2 2,2 l 21,0 0,-20 z" transform="translate(0,276)"/><path style="opacity:1;fill:url(#linearGradient3942);fill-opacity:1;stroke:none" id="path3999" d="M 3,2 C 1.892,2 1,2.892 1,4 l 0,16 c 0,1.108 0.892,2 2,2 l 21,0 0,-1 -20,0 C 2.892,21 2,20.108 2,19 L 2,5 C 2,3.892 2.892,3 4,3 l 20,0 0,-1 z" transform="translate(0,276)"/><path style="opacity:1;fill:url(#linearGradient3939);fill-opacity:1;stroke:none" id="rect3986" d="M 3,2 C 1.892,2 1,2.892 1,4 l 0,16 c 0,1.108 0.892,2 2,2 l 21,0 0,-1 -20,0 C 2.892,21 2,20.108 2,19 L 2,5 C 2,3.892 2.892,3 4,3 l 20,0 0,-1 z" transform="translate(0,276)"/></g></svg>