<svg xmlns="http://www.w3.org/2000/svg" xmlns:svg="http://www.w3.org/2000/svg" id="svg11300" width="24" height="24" version="1.0" style="display:inline;enable-background:new"><metadata id="metadata4"/><g style="display:inline" id="layer1" transform="translate(0,-276)"><path style="fill:#fff;fill-opacity:1;stroke:none;opacity:.3" id="rect3005" d="M 2 1 C 0.892 1 0 1.892 0 3 L 0 21 C 0 22.108 0.892 23 2 23 L 24 23 L 24 22 L 3 22 C 1.892 22 1 21.108 1 20 L 1 4 C 1 2.892 1.892 2 3 2 L 24 2 L 24 1 L 2 1 z" transform="translate(0,276)"/><path style="fill:#969696;fill-opacity:1;stroke:none;opacity:.84999999999999998" id="rect3003" d="M 3,2 C 1.892,2 1,2.892 1,4 l 0,16 c 0,1.108 0.892,2 2,2 l 21,0 0,-20 z" transform="translate(0,276)"/></g></svg>