<svg xmlns="http://www.w3.org/2000/svg" xmlns:svg="http://www.w3.org/2000/svg" id="svg11300" width="24" height="24" version="1.0" style="display:inline;enable-background:new"><metadata id="metadata4"/><g style="display:inline" id="layer1" transform="translate(0,-276)"><path style="opacity:.29999999999999999;fill:#f5f5f5;fill-opacity:1;stroke:none" id="rect3005" d="M 2 0 C 0.892 0 3.0947467e-18 0.892 0 2 L 0 22 C 0 23.108 0.892 24 2 24 L 22 24 C 23.108 24 24 23.108 24 22 L 24 2 C 24 0.892 23.108 3.0947467e-18 22 0 L 2 0 z M 3 1 L 21 1 C 22.108 1 23 1.892 23 3 L 23 21 C 23 22.108 22.108 23 21 23 L 3 23 C 1.892 23 1 22.108 1 21 L 1 3 C 1 1.892 1.892 1 3 1 z" transform="translate(0,276)"/><rect style="fill:#f5f5f5;fill-opacity:1;stroke:none;opacity:.84999999999999998" id="rect3003" width="22" height="22" x="1" y="1" rx="2" ry="2" transform="translate(0,276)"/></g></svg>